<?xml version="1.0" standalone="no"?>
<!DOCTYPE svg PUBLIC "-//W3C//DTD SVG 20010904//EN"
 "http://www.w3.org/TR/2001/REC-SVG-20010904/DTD/svg10.dtd">
<svg version="1.0" xmlns="http://www.w3.org/2000/svg"
 width="300.000000pt" height="300.000000pt" viewBox="0 0 300.000000 300.000000"
 preserveAspectRatio="xMidYMid meet">
<metadata>
Created by potrace 1.10, written by Peter Selinger 2001-2011
</metadata>
<g transform="translate(0.000000,300.000000) scale(0.100000,-0.100000)"
fill="#000000" stroke="none">
<path d="M2778 2992 c-1 -5 -30 -30 -63 -56 -33 -27 -68 -56 -77 -65 -9 -9
-28 -27 -42 -40 -14 -13 -26 -29 -26 -36 0 -8 12 -2 28 13 55 53 108 98 170
145 55 40 60 47 39 47 -14 0 -27 -4 -29 -8z"/>
<path d="M2886 2838 c4 -162 13 -223 15 -112 5 203 3 274 -7 274 -9 0 -11 -44
-8 -162z"/>
<path d="M1850 2736 l0 -214 33 0 c67 0 173 -76 148 -106 -9 -11 -8 -15 5 -20
12 -4 15 -2 10 9 -7 20 18 19 50 -1 13 -9 27 -14 30 -11 11 10 -17 47 -35 47
-10 0 -36 16 -57 35 -42 39 -83 63 -111 68 -35 5 -43 18 -43 67 0 49 0 49 38
55 62 10 69 14 25 12 -24 -1 -47 3 -52 8 -5 6 -12 62 -16 125 -4 63 -7 121 -7
128 -1 6 -5 12 -10 12 -4 0 -8 -96 -8 -214z"/>
<path d="M2770 2524 c-91 -72 -131 -107 -126 -111 5 -5 61 33 91 62 11 11 37
35 58 53 51 43 33 41 -23 -4z"/>
<path d="M484 2507 c-35 -21 -69 -51 -91 -82 -28 -40 -49 -113 -37 -125 6 -6
11 4 12 28 3 46 61 134 108 163 19 11 34 23 34 25 0 6 -2 5 -26 -9z"/>
<path d="M1800 2510 c-58 -18 -134 -66 -165 -104 -36 -44 -58 -106 -45 -126 5
-7 6 -18 4 -25 -3 -6 -1 -22 5 -36 l9 -24 7 27 c4 16 10 26 14 24 10 -6 181
124 181 137 0 14 -50 -10 -90 -42 -25 -20 -51 -40 -58 -46 -7 -5 -19 -15 -26
-22 -11 -9 -15 -7 -23 10 -11 27 -5 70 8 61 5 -3 8 -2 7 3 -5 16 36 72 56 77
12 3 35 18 51 34 17 16 41 31 53 34 23 7 24 6 5 -15 l-18 -21 27 17 c39 25 45
21 17 -10 -23 -27 -22 -27 11 2 19 17 37 32 40 33 3 2 -2 3 -10 2 -27 -4 -41
0 -35 10 3 6 5 10 3 9 -2 0 -14 -4 -28 -9z"/>
<path d="M724 2489 c-3 -6 -1 -16 5 -22 8 -8 11 -8 11 2 0 7 5 9 11 6 6 -4 8
-13 5 -21 -3 -9 2 -14 14 -14 12 0 22 -9 26 -24 3 -15 11 -23 19 -20 15 6 50
-63 59 -118 5 -27 3 -38 -6 -38 -9 0 -9 -3 0 -12 7 -7 12 -23 12 -36 0 -19 -4
-22 -20 -17 -15 5 -20 2 -20 -10 0 -11 5 -15 14 -12 10 4 16 -5 21 -29 5 -29
-2 -53 -39 -132 l-46 -97 -53 -3 c-47 -3 -56 -6 -66 -29 -9 -21 -9 -30 4 -50
19 -29 100 -82 173 -113 29 -13 58 -32 64 -43 29 -55 158 -465 158 -504 0 -7
-9 -13 -20 -13 -16 0 -20 -7 -20 -35 0 -20 7 -49 15 -65 21 -41 67 -41 122 0
52 38 108 58 187 66 81 8 101 -11 21 -21 -85 -11 -70 -37 24 -40 37 -2 58 -8
66 -19 10 -13 14 -14 22 -4 14 19 27 44 19 36 -4 -3 -17 1 -28 10 -11 9 -29
25 -40 34 -12 10 -32 18 -45 18 -40 0 -89 26 -119 64 l-29 36 -87 0 c-72 0
-88 3 -88 15 0 8 7 16 15 16 8 1 20 3 25 4 6 1 18 4 28 5 9 2 -3 6 -28 9 -37
5 -45 10 -45 27 -1 12 -9 29 -18 39 -29 28 -7 37 86 33 55 -2 83 1 81 7 -3 7
-31 9 -72 7 -82 -5 -119 8 -120 40 -2 39 -7 56 -25 76 -9 10 -17 22 -17 25 0
4 36 7 80 7 l80 0 0 -46 c0 -29 4 -43 11 -39 14 9 8 66 -10 88 -11 13 -30 17
-81 17 -48 0 -71 4 -80 15 -7 9 -10 18 -7 21 14 14 -70 139 -94 139 -20 0
-145 74 -165 98 -34 40 -27 53 27 49 34 -3 51 2 72 18 15 12 27 28 27 36 0 8
15 44 33 81 33 66 34 71 34 193 0 88 -2 110 -7 75 l-7 -50 -1 46 c-2 47 -57
174 -71 164 -4 -2 -23 11 -41 30 -36 37 -45 41 -56 24z m551 -1326 c23 -34 24
-38 8 -41 -10 -2 -25 -6 -33 -9 -8 -3 -20 -7 -26 -8 -6 -2 -35 -19 -64 -39
-40 -28 -56 -34 -70 -26 -29 15 -34 57 -10 87 11 14 20 33 20 43 0 27 9 30 81
30 68 0 69 0 94 -37z m196 -104 c21 -18 21 -20 4 -13 -11 4 -35 9 -52 12 -18
2 -33 8 -33 13 0 17 58 9 81 -12z"/>
<path d="M1900 2395 c-67 -42 -87 -45 -40 -5 19 17 30 30 25 30 -6 0 -22 -11
-37 -24 -27 -23 -38 -66 -17 -66 5 0 7 -4 4 -10 -8 -13 6 -13 25 0 13 8 13 11
1 19 -10 7 1 18 43 45 48 30 66 46 53 46 -2 0 -27 -16 -57 -35z"/>
<path d="M2051 2386 c-9 -10 -8 -15 4 -20 8 -3 15 -11 15 -18 1 -7 10 -24 21
-37 l20 -24 21 20 c23 24 16 52 -8 32 -11 -9 -14 -7 -14 9 0 15 -5 20 -15 16
-9 -4 -15 0 -15 9 0 22 -16 29 -29 13z"/>
<path d="M754 2375 c-10 -7 -25 -11 -34 -8 -11 4 -12 3 -2 -4 17 -12 6 -21
-68 -58 -30 -15 -65 -36 -77 -48 -13 -11 -23 -16 -23 -10 0 6 -8 13 -17 17
-10 3 -25 11 -34 17 -25 19 -68 2 -90 -35 -18 -31 -23 -34 -50 -26 -16 5 -27
5 -24 0 3 -5 1 -11 -5 -15 -5 -3 -10 -16 -9 -28 0 -19 2 -19 11 6 5 15 15 27
23 27 7 0 15 -12 18 -27 3 -16 17 -44 31 -63 14 -19 29 -43 32 -52 4 -10 11
-18 16 -18 12 0 1 70 -18 117 -17 40 -9 79 18 94 16 9 25 6 48 -16 21 -20 34
-25 52 -20 19 6 21 5 11 -6 -14 -14 -18 -59 -5 -59 4 0 20 24 34 54 25 50 30
54 78 66 51 12 102 46 120 80 13 24 -11 34 -36 15z"/>
<path d="M1927 2356 c-35 -25 -43 -35 -32 -40 9 -3 14 -2 11 3 -4 5 14 21 39
35 25 15 45 29 45 31 0 11 -18 3 -63 -29z"/>
<path d="M1846 2290 c-18 -39 32 -48 87 -15 42 25 31 34 -17 15 -14 -5 -26 -6
-26 -2 0 9 -40 11 -44 2z"/>
<path d="M1940 2227 c-88 -74 -117 -92 -122 -75 -2 6 -20 -3 -41 -22 -42 -37
-43 -54 -1 -21 31 24 69 28 77 7 4 -10 -5 -18 -25 -25 -17 -6 -29 -13 -26 -16
3 -3 19 0 36 6 33 11 40 27 21 46 -7 7 -2 15 18 28 28 18 28 18 10 -2 -9 -11
-14 -23 -10 -26 8 -9 36 30 29 42 -3 4 5 18 18 30 23 22 23 22 29 2 3 -12 11
-21 17 -21 7 0 10 7 6 16 -3 9 4 25 20 41 14 14 24 31 22 39 -2 9 -30 -9 -78
-49z"/>
<path d="M2040 2281 c0 -5 11 -16 25 -25 29 -19 34 -7 7 17 -21 19 -32 22 -32
8z"/>
<path d="M280 2252 c-31 -26 -34 -33 -31 -77 1 -27 6 -56 11 -64 6 -10 7 5 4
39 -4 41 -2 60 10 75 15 19 16 19 9 1 -6 -17 -4 -17 16 3 12 12 26 19 30 16 7
-4 21 16 21 31 0 14 -41 0 -70 -24z"/>
<path d="M710 2269 c-12 -8 -11 -9 6 -4 30 8 74 -14 74 -37 0 -11 5 -16 10
-13 6 3 10 15 10 26 0 31 -68 51 -100 28z"/>
<path d="M454 2238 c-4 -7 -3 -8 4 -4 6 3 16 -2 22 -13 8 -16 7 -22 -7 -29
-15 -9 -14 -13 10 -42 15 -17 27 -28 27 -24 0 4 -7 16 -16 26 -13 14 -14 21
-5 32 15 18 6 52 -14 60 -8 3 -17 0 -21 -6z"/>
<path d="M2040 2227 c0 -14 5 -29 10 -32 6 -4 8 -11 4 -16 -7 -12 15 -69 27
-69 5 0 9 5 9 10 0 6 -5 10 -11 10 -5 0 -7 5 -4 10 3 6 0 10 -7 10 -9 0 -9 3
-2 8 14 9 24 47 15 58 -3 5 -14 15 -23 23 -16 12 -18 11 -18 -12z"/>
<path d="M695 2203 c13 -14 77 -34 83 -28 10 10 -13 23 -53 30 -26 5 -37 4
-30 -2z"/>
<path d="M796 2118 c-6 -40 -4 -55 8 -67 11 -10 16 -11 16 -3 0 7 7 12 16 12
11 0 14 6 11 18 -22 66 -33 92 -38 92 -4 0 -10 -23 -13 -52z"/>
<path d="M1985 2148 c3 -13 7 -29 7 -35 1 -9 5 -9 13 -3 7 5 15 6 19 2 4 -4 0
8 -11 25 -21 38 -39 44 -28 11z"/>
<path d="M2110 2153 c0 -12 46 -63 58 -63 4 0 27 -14 50 -31 46 -34 56 -59 67
-175 5 -56 2 -79 -11 -106 -14 -29 -15 -45 -6 -94 8 -47 7 -62 -5 -81 -19 -29
-11 -158 14 -223 4 -8 7 -18 7 -22 1 -3 5 -10 10 -15 5 -4 6 11 2 37 -22 148
-20 205 10 234 21 22 77 20 97 -2 22 -25 47 -86 47 -118 0 -16 5 -24 13 -21
24 8 -5 106 -43 147 -28 30 -34 32 -80 28 l-50 -5 0 55 c0 44 6 64 26 93 14
21 23 43 19 49 -6 9 -9 9 -15 0 -5 -8 -8 1 -8 22 0 50 -22 148 -38 174 -8 11
-31 30 -52 40 -20 10 -54 34 -74 53 -21 19 -38 30 -38 24z"/>
<path d="M1650 2061 c-14 -26 -2 -54 19 -45 39 16 56 15 69 -7 12 -18 12 -23
0 -30 -10 -7 -9 -9 5 -9 15 0 16 6 11 40 -7 42 4 52 27 24 15 -19 69 -47 76
-40 3 2 -10 12 -29 22 -18 9 -39 25 -46 36 -9 13 -18 16 -29 9 -10 -5 -25 -3
-42 5 -35 19 -48 17 -61 -5z m60 -10 c0 -10 -24 -21 -47 -21 -13 0 -13 3 -3
15 13 16 50 21 50 6z"/>
<path d="M1993 2028 c2 -21 7 -41 10 -45 11 -10 8 50 -3 67 -8 11 -9 5 -7 -22z"/>
<path d="M2171 2030 c-2 -38 -29 -107 -30 -78 -1 9 -6 29 -12 45 -10 26 -12
26 -19 8 -5 -13 -1 -28 11 -44 11 -13 19 -29 19 -36 0 -17 -42 -117 -61 -146
l-17 -24 -31 29 c-24 23 -31 26 -31 13 0 -9 4 -17 10 -17 5 0 8 -6 6 -12 -1
-7 -1 -10 1 -7 5 8 53 -13 53 -23 0 -4 -4 -18 -10 -33 -8 -22 -1 -44 49 -148
l59 -122 2 55 c0 30 4 85 8 122 l8 67 -36 16 c-73 34 -74 34 -41 106 41 90 73
202 68 236 -4 25 -4 25 -6 -7z m-36 -364 c19 -26 24 -40 19 -65 -9 -43 -21
-39 -44 15 -36 82 -21 111 25 50z"/>
<path d="M2300 2047 c3 -4 62 -13 130 -22 69 -9 139 -18 155 -21 28 -6 29 -5
14 10 -11 12 -37 18 -85 21 -38 2 -103 6 -144 10 -41 4 -73 5 -70 2z"/>
<path d="M760 2000 c20 -13 57 -13 65 0 4 6 -11 10 -37 10 -31 0 -39 -3 -28
-10z"/>
<path d="M2480 1965 l-34 -25 52 0 c53 0 53 0 38 -22 -22 -31 -20 -48 2 -22
10 12 33 29 50 38 18 9 32 19 32 22 0 2 -8 1 -17 -4 -10 -5 -40 -6 -68 -2 -27
4 -45 8 -39 9 7 0 14 8 18 16 7 19 8 19 -34 -10z"/>
<path d="M1200 1951 c0 -10 226 -22 249 -13 25 10 -52 21 -156 21 -51 1 -93
-3 -93 -8z"/>
<path d="M1795 1927 c-16 -27 -16 -28 32 -72 26 -24 51 -44 56 -45 4 0 8 -12
8 -27 2 -24 2 -25 6 -6 4 19 8 21 24 13 12 -7 19 -7 19 -1 0 5 10 13 23 17 12
4 22 6 22 4 0 -2 10 2 23 9 17 9 21 18 16 33 -5 15 -3 19 7 13 8 -5 11 -4 6 1
-14 15 -51 10 -70 -9 -12 -12 -25 -16 -39 -11 -14 4 -18 2 -14 -5 8 -13 -4
-14 -23 -2 -7 5 -11 13 -7 19 6 11 -21 25 -34 17 -4 -3 -10 5 -14 18 -6 24 15
47 46 47 29 0 20 -18 -13 -25 -17 -4 -28 -9 -26 -11 2 -3 26 1 52 8 43 12 48
11 61 -7 17 -23 18 -15 2 20 -13 28 -12 28 -90 29 -52 1 -58 -1 -73 -27z"/>
<path d="M2373 1949 c9 -5 17 -16 17 -24 0 -8 6 -12 14 -9 7 3 16 -2 19 -10 4
-9 11 -16 16 -16 12 0 -8 51 -24 62 -5 4 -21 8 -35 8 -22 -1 -23 -2 -7 -11z"/>
<path d="M366 1904 c-4 -17 -21 -44 -38 -60 -17 -16 -28 -23 -24 -16 11 19
-11 14 -26 -5 -18 -24 -78 -55 -78 -41 0 7 -5 7 -14 -1 -11 -10 -17 -8 -25 6
-9 15 -10 12 -11 -19 0 -33 -4 -40 -33 -51 -33 -15 -69 -49 -73 -70 -2 -7 -12
-37 -23 -67 -16 -41 -21 -76 -20 -140 l2 -85 8 69 c15 133 45 222 85 257 11 9
66 40 124 69 58 29 111 60 118 69 42 53 48 67 42 91 -7 25 -7 25 -14 -6z"/>
<path d="M1160 1760 c0 -165 1 -170 23 -184 29 -18 85 -28 92 -16 3 6 11 10
17 10 6 0 6 -6 -2 -15 -11 -14 -10 -14 14 -5 15 5 48 10 74 11 26 0 56 4 67 9
12 5 -34 9 -122 9 l-143 1 0 175 c0 110 -4 175 -10 175 -6 0 -10 -63 -10 -170z"/>
<path d="M1471 1765 c0 -113 3 -165 9 -155 12 18 12 229 1 285 -6 28 -9 -12
-10 -130z"/>
<path d="M624 1858 c-27 -30 -56 -78 -48 -78 4 0 1 -7 -6 -15 -7 -8 -17 -12
-22 -9 -5 3 -15 -2 -23 -12 -12 -17 -17 -14 -64 34 -51 52 -67 59 -31 12 26
-33 25 -37 -9 -45 -35 -8 -64 -35 -36 -35 9 0 30 8 45 17 28 16 29 16 48 -6
18 -23 19 -23 50 -7 l32 16 14 -32 c8 -18 15 -27 15 -20 1 7 -4 22 -10 33 -8
17 -6 28 14 57 46 71 58 93 55 103 -2 6 -13 0 -24 -13z"/>
<path d="M2869 1838 c7 -10 17 -15 22 -12 5 3 7 -1 4 -8 -3 -7 19 -42 47 -77
36 -44 54 -59 56 -48 2 9 -15 36 -38 59 -23 24 -44 56 -47 71 -4 20 -9 25 -16
18 -7 -7 -15 -7 -26 2 -14 11 -14 10 -2 -5z"/>
<path d="M660 1766 c0 -19 5 -38 10 -41 18 -11 12 -38 -7 -31 -13 4 -11 1 4
-11 19 -15 23 -29 25 -96 2 -59 -1 -80 -12 -87 -12 -7 -11 -13 7 -32 11 -13
30 -39 42 -58 l21 -35 0 45 c-1 87 -36 294 -59 338 -12 23 -24 42 -26 42 -3 0
-5 -15 -5 -34z"/>
<path d="M1966 1758 c-3 -13 -7 -51 -9 -85 -4 -54 -3 -62 14 -66 17 -5 18 -9
8 -34 -23 -60 25 -259 94 -383 22 -41 42 -69 44 -63 2 6 -12 39 -31 74 -46 85
-62 132 -81 241 -13 72 -14 97 -4 126 10 32 10 37 -8 52 -18 14 -20 25 -15 88
4 69 -2 97 -12 50z"/>
<path d="M335 1750 c2 -14 5 -46 5 -72 0 -38 4 -48 20 -53 11 -4 21 -16 21
-28 1 -18 2 -19 6 -4 8 30 28 12 25 -22 -1 -17 1 -31 5 -31 5 0 14 -4 21 -9
11 -6 8 -14 -12 -34 -37 -37 -41 -67 -16 -139 33 -96 82 -198 94 -198 6 0 5
-4 -3 -9 -28 -18 0 -29 62 -24 110 10 112 15 66 175 -33 115 -40 130 -75 157
-46 36 -101 24 -128 -27 -12 -20 -15 -23 -16 -9 0 22 15 52 40 77 18 18 21 18
52 4 61 -28 96 -49 95 -55 -3 -11 94 -88 149 -120 47 -27 67 -52 85 -104 6
-18 7 -17 8 5 1 73 -133 200 -299 281 -58 29 -107 54 -109 55 -2 2 4 15 13 28
22 35 21 36 -24 36 -22 0 -40 1 -40 3 0 1 -12 34 -25 72 -14 39 -23 59 -20 45z
m216 -322 c31 -35 79 -165 82 -227 2 -29 -3 -37 -26 -49 -24 -11 -29 -11 -44
3 -15 16 -18 15 -35 -7 -11 -13 -18 -17 -16 -8 1 8 -3 25 -10 37 -25 46 -72
179 -72 206 0 33 40 77 70 77 12 0 35 -15 51 -32z"/>
<path d="M1552 1700 c-6 -156 -16 -256 -26 -262 -6 -4 -39 -8 -73 -8 -55 0
-64 3 -82 26 -19 24 -21 25 -21 6 0 -11 7 -23 16 -26 8 -3 12 -10 9 -16 -4 -6
29 -10 92 -10 l98 0 -3 117 c-1 65 -4 143 -5 173 l-3 55 -2 -55z"/>
<path d="M1873 1706 c-45 -48 -60 -95 -68 -217 -3 -35 -8 -98 -12 -139 l-8
-75 -94 -3 -93 -3 4 36 c3 28 1 35 -13 35 -15 0 -17 -6 -12 -35 l6 -35 -46 0
c-39 0 -49 4 -66 29 -11 15 -18 31 -14 34 11 11 -41 45 -77 51 -24 4 -38 13
-45 28 -6 13 -20 24 -32 26 -13 2 -23 7 -23 12 0 4 -7 10 -15 14 -11 4 -15 -1
-15 -17 0 -18 16 -29 86 -61 85 -39 111 -62 144 -129 24 -49 85 -85 167 -99
64 -10 78 -17 106 -47 17 -19 34 -44 37 -56 5 -17 7 -17 12 -4 4 9 0 29 -8 44
-8 15 -12 30 -9 33 7 8 86 -30 117 -56 38 -32 35 -19 -3 19 -36 36 -108 69
-148 69 -15 0 -42 7 -59 16 -17 8 -41 16 -52 17 -11 1 -20 5 -20 10 0 5 34 7
76 5 l75 -3 25 51 c21 43 24 59 18 107 -4 32 -3 57 2 57 5 0 9 39 9 88 0 65 5
97 19 125 14 28 21 35 27 25 6 -9 9 -6 9 10 0 12 4 22 8 22 4 0 16 14 25 30
26 43 8 37 -40 -14z m-94 -462 c11 -10 -15 -15 -115 -20 -111 -6 -186 6 -154
26 13 8 259 2 269 -6z"/>
<path d="M254 1700 c-3 -3 -9 -5 -12 -6 -4 0 -18 -6 -32 -12 -41 -18 1 -12 55
8 37 14 43 18 22 17 -15 -1 -30 -4 -33 -7z"/>
<path d="M2755 1694 c11 -8 41 -25 68 -37 26 -12 47 -25 47 -29 0 -4 11 -2 25
4 36 16 31 24 -20 31 -25 4 -63 16 -85 27 -46 24 -63 26 -35 4z"/>
<path d="M188 1630 c19 -26 14 -35 -8 -15 -11 10 -20 14 -20 9 0 -19 42 -76
59 -81 10 -2 24 -21 32 -41 8 -20 16 -41 18 -46 2 -5 -25 18 -59 52 -35 34
-66 60 -68 57 -9 -9 34 -63 83 -103 62 -50 74 -84 77 -214 1 -69 2 -75 8 -38
7 49 5 138 -4 185 -6 27 -4 27 13 -9 18 -37 38 -37 24 1 -11 32 -117 203 -143
232 -14 15 -19 20 -12 11z"/>
<path d="M585 1600 c39 -40 61 -55 33 -22 -8 9 -24 27 -34 40 -10 12 -23 22
-28 22 -6 0 8 -18 29 -40z"/>
<path d="M2964 1608 c-33 -25 -174 -170 -174 -179 0 -3 39 -41 86 -84 75 -70
84 -82 79 -105 -4 -14 -8 -36 -10 -50 -8 -81 -76 -272 -134 -379 -34 -61 -42
-69 -124 -116 -65 -36 -93 -59 -104 -82 -18 -37 -85 -113 -101 -113 -18 0 -26
-22 -11 -31 19 -12 42 -11 34 1 -3 6 4 10 16 10 13 0 44 21 76 51 42 39 59 50
81 47 26 -3 27 -5 24 -55 -1 -28 2 -54 8 -58 5 -3 7 0 5 7 -3 7 -2 40 3 73 l8
60 -37 2 c-29 2 -45 -5 -80 -35 l-44 -37 22 35 c13 19 29 34 37 34 8 -1 12 4
10 11 -6 15 9 27 82 66 66 36 124 86 124 109 0 8 14 39 30 69 17 30 30 63 30
73 0 10 6 21 14 24 8 3 12 13 9 25 -3 10 0 19 6 19 5 0 8 7 5 15 -4 8 -1 15 6
15 6 0 9 8 6 18 -4 10 4 38 16 63 12 24 21 52 20 62 0 9 3 17 9 17 5 0 9 26 9
58 0 35 -4 52 -9 44 -6 -11 -20 -3 -56 32 -26 25 -51 46 -56 46 -12 0 -59 52
-59 66 0 11 84 94 96 94 3 0 19 -9 35 -21 36 -26 38 -14 2 23 l-27 28 24 25
c13 14 29 25 37 25 7 0 13 5 13 10 0 14 -4 13 -36 -12z"/>
<path d="M852 1520 c16 -49 34 -90 40 -90 12 0 2 50 -26 119 -35 91 -46 69
-14 -29z"/>
<path d="M2657 1518 c7 -8 11 -17 8 -20 -3 -3 13 -12 35 -21 22 -8 40 -11 40
-6 0 5 -6 9 -14 9 -7 0 -19 7 -26 16 -8 8 -23 20 -34 26 -18 10 -19 9 -9 -4z"/>
<path d="M100 1499 c0 -6 12 -27 27 -47 34 -47 120 -125 105 -96 -16 31 -132
156 -132 143z"/>
<path d="M1034 1448 c-3 -4 6 -8 20 -8 13 0 31 -3 40 -6 10 -4 16 -1 16 8 0
15 -67 21 -76 6z"/>
<path d="M1903 1449 c9 -6 15 -14 12 -19 -3 -5 5 -31 19 -57 13 -27 29 -67 35
-91 7 -23 15 -42 20 -42 9 0 -55 188 -71 207 -6 7 -16 13 -22 13 -6 0 -3 -5 7
-11z"/>
<path d="M2197 1413 c-8 -21 -20 -56 -25 -78 l-11 -40 19 24 c11 13 20 34 20
46 0 13 5 36 10 51 6 15 9 29 7 31 -3 2 -11 -13 -20 -34z"/>
<path d="M1140 1417 c0 -9 13 -11 43 -9 63 6 70 22 9 22 -36 0 -52 -4 -52 -13z"/>
<path d="M110 1406 c0 -5 44 -77 60 -97 10 -13 70 -21 70 -10 0 6 -11 11 -24
11 -17 0 -36 15 -65 51 -23 29 -41 49 -41 45z"/>
<path d="M60 1389 c0 -13 38 -78 58 -98 30 -31 22 2 -13 54 -40 57 -45 62 -45
44z"/>
<path d="M1234 1376 c-1 -19 2 -23 19 -18 16 4 19 2 14 -11 -5 -12 -1 -17 13
-17 27 0 25 12 -6 44 -33 32 -39 32 -40 2z"/>
<path d="M1675 1385 c-29 -14 -29 -14 32 -15 60 0 89 12 57 24 -24 9 -56 6
-89 -9z"/>
<path d="M2743 1329 c-43 -72 -46 -86 -8 -45 20 22 60 105 53 111 -2 2 -22
-28 -45 -66z"/>
<path d="M1480 1356 c0 -10 9 -16 21 -16 24 0 21 23 -4 28 -10 2 -17 -3 -17
-12z"/>
<path d="M1320 1345 c0 -8 -3 -15 -8 -15 -4 0 -13 -9 -20 -21 -8 -12 -9 -18
-3 -14 14 8 14 -1 0 -28 l-11 -22 22 22 c13 12 24 32 25 45 1 13 5 21 8 20 4
-2 15 -6 24 -9 10 -3 33 -23 51 -46 27 -32 33 -48 30 -74 -4 -30 -1 -34 26
-42 38 -9 45 3 19 32 -11 12 -27 36 -37 52 -10 17 -30 42 -44 58 -14 15 -22
27 -16 27 8 1 -53 30 -62 30 -2 0 -4 -7 -4 -15z"/>
<path d="M2396 1339 c-22 -5 -42 -11 -44 -13 -2 -2 2 -31 8 -64 l12 -60 29 10
c16 6 40 7 52 4 l24 -6 -15 70 c-9 39 -18 70 -21 69 -3 -1 -24 -5 -45 -10z
m31 -49 c1 -11 -4 -20 -10 -20 -7 0 -6 -4 3 -10 13 -8 13 -10 -1 -10 -16 0
-32 43 -21 55 12 12 28 4 29 -15z"/>
<path d="M2790 1310 c-7 -17 -16 -30 -20 -30 -12 0 -20 -44 -10 -54 7 -7 10
-2 10 12 0 12 7 30 15 39 8 10 15 22 14 27 0 5 5 12 11 16 8 5 8 10 2 14 -5 3
-15 -8 -22 -24z"/>
<path d="M1335 1266 c-4 -19 -5 -42 -2 -53 3 -10 5 -1 6 19 0 20 6 40 11 43
13 8 13 25 0 25 -5 0 -12 -15 -15 -34z"/>
<path d="M784 1225 c-8 -21 3 -45 20 -45 21 0 25 11 15 38 -10 25 -27 29 -35
7z"/>
<path d="M73 1213 c-45 -6 -42 -21 4 -20 20 1 38 -4 40 -10 3 -8 22 -10 57 -6
46 5 57 2 76 -17 18 -18 21 -29 16 -59 -4 -25 -1 -44 9 -57 13 -18 14 -16 16
21 1 22 2 51 3 65 1 36 -37 68 -92 75 -85 11 -97 12 -129 8z"/>
<path d="M727 1148 c-100 -166 -122 -217 -67 -156 17 18 30 36 30 40 0 4 13
27 29 50 33 49 48 88 32 88 -6 0 -17 -10 -24 -22z"/>
<path d="M2023 1142 c-6 -10 -19 -59 -28 -107 -9 -49 -23 -104 -30 -122 -8
-19 -10 -31 -5 -28 18 11 48 94 55 150 4 31 14 63 22 71 11 11 13 21 7 35 -9
19 -9 19 -21 1z"/>
<path d="M1450 1115 c6 -7 24 -15 41 -19 17 -3 59 -19 92 -34 34 -16 76 -34
92 -40 33 -13 95 -13 95 -2 0 12 -70 17 -70 5 0 -5 -6 -3 -13 5 -20 25 -169
92 -210 95 -29 2 -35 0 -27 -10z"/>
<path d="M1915 1115 c43 -10 50 -15 48 -34 -2 -13 1 -20 7 -16 6 3 10 18 10
33 0 26 -2 27 -58 28 l-57 1 50 -12z"/>
<path d="M105 1104 c-26 -12 -27 -14 -5 -9 14 2 41 5 60 5 26 0 31 3 20 10
-20 13 -40 12 -75 -6z"/>
<path d="M527 1078 c-19 -24 -67 -77 -107 -118 l-71 -75 -25 28 c-13 15 -25
36 -26 45 0 9 -2 22 -3 27 -2 6 -4 17 -5 25 -1 8 -6 -5 -10 -30 -4 -28 -3 -52
4 -63 12 -20 103 -94 186 -153 47 -34 53 -36 39 -14 -9 14 -38 38 -65 53 -27
16 -57 40 -67 53 l-19 25 111 113 c61 61 111 115 111 119 0 17 -20 4 -53 -35z"/>
<path d="M17 1064 c-16 -21 -18 -36 -12 -83 10 -91 27 -99 20 -10 -4 61 -2 79
10 89 8 7 15 16 15 21 0 16 -15 9 -33 -17z"/>
<path d="M2130 1066 c0 -14 5 -26 11 -26 6 0 9 9 6 20 -3 11 -1 18 4 14 14 -8
10 -34 -6 -40 -8 -4 -23 0 -33 7 -16 12 -15 11 1 -6 14 -16 21 -17 35 -9 23
15 22 58 0 62 -14 3 -18 -3 -18 -22z"/>
<path d="M967 1053 c-5 -8 -10 -60 -8 -76 1 -4 7 -2 15 5 10 9 11 15 2 21 -8
5 -7 10 4 17 10 6 11 10 3 10 -7 0 -10 7 -7 15 6 15 -1 21 -9 8z"/>
<path d="M1420 1021 c0 -4 7 -14 15 -21 9 -7 13 -20 10 -28 -4 -12 -3 -13 10
-2 21 17 19 25 -10 44 -14 9 -25 12 -25 7z"/>
<path d="M1951 993 c0 -31 2 -34 9 -18 12 28 12 55 0 55 -5 0 -10 -17 -9 -37z"/>
<path d="M208 1001 c8 -5 -4 -8 -32 -7 -36 1 -50 -4 -75 -28 -35 -34 -53 -77
-40 -97 6 -10 9 -7 9 12 0 35 35 78 77 96 30 12 38 12 65 -1 17 -9 35 -13 40
-10 13 8 -21 44 -41 44 -12 0 -13 -2 -3 -9z"/>
<path d="M1371 1001 c-12 -8 -11 -13 9 -29 21 -17 22 -22 11 -35 -7 -9 -18
-14 -24 -12 -7 3 -30 -1 -52 -9 -23 -8 -61 -12 -91 -9 -45 3 -54 1 -63 -15
-18 -35 -101 -82 -142 -82 l-38 0 26 -77 c14 -43 27 -80 29 -81 1 -2 71 2 155
9 151 12 152 12 170 -9 17 -22 19 -22 176 -11 399 26 815 58 819 62 12 12 -19
13 -121 2 -60 -6 -115 -8 -121 -3 -6 4 -13 5 -16 2 -6 -6 -242 -22 -423 -29
-66 -3 -120 -5 -120 -6 0 0 -33 -2 -73 -5 -58 -3 -81 0 -110 15 -20 10 -50 17
-67 16 -16 -1 -78 -6 -137 -10 l-107 -8 -15 38 c-25 59 -21 73 22 84 20 6 57
29 82 51 33 30 51 40 69 37 19 -4 85 6 160 25 8 1 23 11 33 21 15 15 17 21 7
33 -6 8 -18 14 -25 14 -8 0 -14 5 -14 11 0 6 7 9 15 5 8 -3 15 -1 15 4 0 12
-20 13 -39 1z"/>
<path d="M779 949 c-9 -17 -8 -25 4 -37 19 -18 47 -9 47 16 0 18 -18 42 -32
42 -4 0 -12 -10 -19 -21z"/>
<path d="M919 914 c-52 -50 -109 -129 -109 -151 0 -9 60 55 60 65 0 4 18 27
40 52 l40 44 0 -46 c0 -46 10 -58 47 -58 14 0 14 2 -1 19 -9 10 -20 35 -23 56
-5 32 -2 40 18 56 21 16 21 19 6 19 -10 0 -45 -25 -78 -56z"/>
<path d="M157 917 c9 -17 88 -78 124 -98 13 -6 30 -21 37 -31 7 -10 30 -27 50
-37 20 -10 46 -29 57 -41 25 -27 78 -56 82 -44 5 15 93 4 93 -12 0 -7 20 -27
45 -44 24 -17 50 -39 57 -49 14 -19 78 -39 78 -24 0 5 -14 14 -31 20 -17 7
-28 17 -24 22 3 6 0 11 -7 11 -14 1 -118 91 -118 103 0 25 65 -21 157 -110 33
-33 62 -53 76 -53 22 1 22 1 2 15 -11 9 -38 32 -60 53 -65 61 -132 112 -148
112 -9 0 -43 -7 -77 -16 l-61 -15 -32 28 c-18 16 -71 55 -117 87 -47 33 -96
69 -110 81 -41 35 -84 60 -73 42z"/>
<path d="M2956 785 c-9 -9 -19 -22 -23 -28 -5 -7 -21 -23 -37 -35 l-29 -22 25
0 c13 0 29 5 36 12 8 8 15 8 25 0 11 -10 16 -3 24 33 11 49 3 64 -21 40z"/>
<path d="M2576 739 c-32 -5 -62 -11 -65 -15 -7 -8 111 5 147 16 l27 8 -25 0
c-14 0 -52 -4 -84 -9z"/>
<path d="M935 720 c-3 -11 -13 -27 -22 -35 -8 -9 -12 -19 -9 -22 10 -10 33 19
40 50 7 31 0 37 -9 7z"/>
<path d="M800 723 c-18 -7 -30 -24 -24 -34 8 -13 59 7 62 24 3 17 -10 20 -38
10z"/>
<path d="M2395 709 c-13 -6 0 -7 40 -3 33 4 62 8 64 10 9 8 -85 2 -104 -7z"/>
<path d="M690 701 c0 -5 12 -17 27 -26 14 -10 55 -44 90 -77 35 -32 68 -56 73
-53 16 10 12 35 -5 35 -9 0 -34 17 -58 38 -49 45 -111 92 -120 92 -4 0 -7 -4
-7 -9z"/>
<path d="M106 682 c-3 -5 7 -7 22 -5 46 6 54 -7 36 -55 -18 -46 -30 -52 -97
-54 -41 0 -79 -12 -67 -20 3 -2 40 -2 83 0 61 3 77 7 77 19 0 8 11 37 25 65
14 27 25 52 25 54 0 8 -99 4 -104 -4z"/>
<path d="M423 632 c10 -10 14 -21 11 -25 -4 -3 5 -9 20 -13 31 -8 35 -24 4
-24 -52 0 -4 -9 98 -19 61 -5 115 -11 120 -13 5 -2 10 2 12 7 1 6 -6 11 -18
13 -11 2 -20 8 -20 14 0 5 -6 8 -14 5 -7 -3 -18 -1 -24 5 -6 6 -16 7 -24 2 -7
-5 -31 -8 -52 -7 -30 2 -48 11 -76 38 -37 36 -66 50 -37 17z"/>
<path d="M2806 600 c-16 -25 -34 -49 -40 -53 -6 -5 -1 -5 12 -2 15 4 22 2 22
-8 0 -8 18 -34 40 -58 l40 -44 -35 62 c-39 68 -43 88 -19 101 9 5 14 18 12 28
-3 15 -10 10 -32 -26z"/>
<path d="M2882 588 c-7 -29 -4 -38 22 -71 63 -78 96 -112 96 -99 0 6 -4 12 -9
12 -5 0 -18 18 -30 41 -12 22 -30 50 -41 61 -14 15 -17 26 -10 39 11 19 4 49
-11 49 -5 0 -12 -15 -17 -32z"/>
<path d="M1580 590 c-58 -10 -148 -22 -200 -26 -113 -9 -93 -18 61 -28 75 -5
167 -1 334 14 126 12 232 23 234 26 10 10 -13 14 -140 24 -161 12 -158 12
-289 -10z"/>
<path d="M2944 586 c-5 -13 42 -96 53 -96 3 0 2 10 -1 23 -4 12 -9 33 -12 46
-9 43 -29 56 -40 27z"/>
<path d="M2021 586 c10 -9 476 -16 504 -7 20 6 -57 10 -239 10 -148 1 -267 -1
-265 -3z"/>
<path d="M2246 518 c3 -4 53 -8 111 -8 59 0 103 3 100 6 -9 10 -216 11 -211 2z"/>
<path d="M2756 499 c-3 -17 -6 -41 -5 -53 0 -20 0 -20 8 -1 16 38 23 85 13 85
-5 0 -12 -14 -16 -31z"/>
<path d="M2876 418 c3 -5 14 -8 24 -8 10 0 22 -4 25 -10 10 -16 21 -12 21 8 0
13 -9 17 -37 17 -21 0 -35 -3 -33 -7z"/>
<path d="M2655 410 c-97 -16 -1173 -103 -2360 -191 -160 -12 -292 -23 -294
-25 -16 -15 35 -16 226 -5 191 11 733 49 803 56 75 8 531 44 640 50 58 3 143
10 190 15 79 8 193 17 332 25 218 13 429 41 543 74 l30 9 -30 0 c-16 0 -52 -4
-80 -8z"/>
</g>
</svg>
